<svg id="georgia" xmlns="http://www.w3.org/2000/svg" width="22.479" height="16" viewBox="0 0 22.479 16">
  <rect id="Rectangle_31" data-name="Rectangle 31" width="22" height="16" transform="translate(0.479 0)" fill="#f0f0f0"/>
  <g id="Group_29" data-name="Group 29" transform="translate(0 0.739)">
    <path id="Path_5" data-name="Path 5" d="M12.508,85.33H9.728v6.022H0v2.78H9.728v6.022h2.78V94.132h9.728v-2.78H12.508Z" transform="translate(0 -85.33)" fill="#d80027"/>
    <path id="Path_6" data-name="Path 6" d="M80.543,122.24v-.967h-.967v.967h-.967v.967h.967v.967h.967v-.967h.967v-.967Z" transform="translate(-75.195 -119.712)" fill="#d80027"/>
    <path id="Path_7" data-name="Path 7" d="M368.543,122.24v-.967h-.967v.967h-.967v.967h.967v.967h.967v-.967h.967v-.967Z" transform="translate(-350.687 -119.712)" fill="#d80027"/>
    <path id="Path_8" data-name="Path 8" d="M80.543,324.9v-.967h-.967v.967h-.967v.967h.967v.967h.967v-.967h.967V324.9Z" transform="translate(-75.195 -313.573)" fill="#d80027"/>
    <path id="Path_9" data-name="Path 9" d="M368.543,324.9v-.967h-.967v.967h-.967v.967h.967v.967h.967v-.967h.967V324.9Z" transform="translate(-350.687 -313.573)" fill="#d80027"/>
  </g>
</svg>
